<mxfile host="app.diagrams.net" modified="2024-01-13T23:25:19.690Z" agent="Mozilla/5.0 (Windows NT 10.0; Win64; x64) AppleWebKit/537.36 (KHTML, like Gecko) Chrome/120.0.0.0 Safari/537.36" etag="2c8MLHVo1mwadZozFH_k" version="22.1.18" type="device">
  <diagram name="Página-1" id="CiTTVXfBIBbXI56gMmDH">
    <mxGraphModel dx="925" dy="488" grid="0" gridSize="10" guides="1" tooltips="1" connect="1" arrows="1" fold="1" page="1" pageScale="1" pageWidth="1169" pageHeight="827" background="#333333" math="0" shadow="0">
      <root>
        <mxCell id="0" />
        <mxCell id="1" parent="0" />
        <mxCell id="d2PY4S5o6BHK0BxMwNVY-5" style="edgeStyle=orthogonalEdgeStyle;rounded=1;orthogonalLoop=1;jettySize=auto;html=1;entryX=0.5;entryY=0;entryDx=0;entryDy=0;entryPerimeter=0;curved=0;" parent="1" source="0bhFbeApOQJovt4dPdJH-5" target="0bhFbeApOQJovt4dPdJH-9" edge="1">
          <mxGeometry relative="1" as="geometry" />
        </mxCell>
        <mxCell id="u2REjSNjAs1CH6g7LEcJ-38" value="" style="edgeStyle=orthogonalEdgeStyle;rounded=1;orthogonalLoop=1;jettySize=auto;html=1;labelBackgroundColor=none;fontColor=default;curved=0;" parent="1" source="u2REjSNjAs1CH6g7LEcJ-1" target="u2REjSNjAs1CH6g7LEcJ-37" edge="1">
          <mxGeometry relative="1" as="geometry" />
        </mxCell>
        <mxCell id="u2REjSNjAs1CH6g7LEcJ-1" value="Start" style="strokeWidth=2;html=1;shape=mxgraph.flowchart.start_2;whiteSpace=wrap;rounded=1;labelBackgroundColor=none;" parent="1" vertex="1">
          <mxGeometry x="535" y="18" width="100" height="100" as="geometry" />
        </mxCell>
        <mxCell id="u2REjSNjAs1CH6g7LEcJ-25" value="" style="edgeStyle=orthogonalEdgeStyle;rounded=1;orthogonalLoop=1;jettySize=auto;html=1;labelBackgroundColor=none;fontColor=default;curved=0;" parent="1" source="u2REjSNjAs1CH6g7LEcJ-18" target="u2REjSNjAs1CH6g7LEcJ-24" edge="1">
          <mxGeometry relative="1" as="geometry" />
        </mxCell>
        <mxCell id="WI9gq7BXhNI-lv0J8zuG-2" value="" style="edgeStyle=orthogonalEdgeStyle;rounded=1;orthogonalLoop=1;jettySize=auto;html=1;curved=0;" parent="1" source="u2REjSNjAs1CH6g7LEcJ-18" target="WI9gq7BXhNI-lv0J8zuG-1" edge="1">
          <mxGeometry relative="1" as="geometry" />
        </mxCell>
        <mxCell id="u2REjSNjAs1CH6g7LEcJ-18" value="Is it the first initialization?" style="strokeWidth=2;html=1;shape=mxgraph.flowchart.decision;whiteSpace=wrap;rounded=1;labelBackgroundColor=none;" parent="1" vertex="1">
          <mxGeometry x="522.5" y="301" width="125" height="100" as="geometry" />
        </mxCell>
        <mxCell id="u2REjSNjAs1CH6g7LEcJ-27" value="" style="edgeStyle=orthogonalEdgeStyle;rounded=1;orthogonalLoop=1;jettySize=auto;html=1;labelBackgroundColor=none;fontColor=default;" parent="1" source="u2REjSNjAs1CH6g7LEcJ-24" target="u2REjSNjAs1CH6g7LEcJ-26" edge="1">
          <mxGeometry relative="1" as="geometry" />
        </mxCell>
        <mxCell id="u2REjSNjAs1CH6g7LEcJ-84" value="" style="edgeStyle=orthogonalEdgeStyle;rounded=1;orthogonalLoop=1;jettySize=auto;html=1;curved=0;" parent="1" source="u2REjSNjAs1CH6g7LEcJ-24" target="u2REjSNjAs1CH6g7LEcJ-26" edge="1">
          <mxGeometry relative="1" as="geometry" />
        </mxCell>
        <mxCell id="u2REjSNjAs1CH6g7LEcJ-24" value="It&#39;s time to set the&lt;br&gt;CLI configuration" style="strokeWidth=2;html=1;shape=mxgraph.flowchart.display;whiteSpace=wrap;rounded=1;labelBackgroundColor=none;" parent="1" vertex="1">
          <mxGeometry x="214.5" y="321" width="180" height="60" as="geometry" />
        </mxCell>
        <mxCell id="u2REjSNjAs1CH6g7LEcJ-34" value="" style="edgeStyle=orthogonalEdgeStyle;rounded=1;orthogonalLoop=1;jettySize=auto;html=1;labelBackgroundColor=none;fontColor=default;curved=0;" parent="1" source="u2REjSNjAs1CH6g7LEcJ-26" target="u2REjSNjAs1CH6g7LEcJ-33" edge="1">
          <mxGeometry relative="1" as="geometry" />
        </mxCell>
        <mxCell id="u2REjSNjAs1CH6g7LEcJ-26" value="Author name" style="html=1;strokeWidth=2;shape=manualInput;whiteSpace=wrap;rounded=1;size=26;arcSize=11;labelBackgroundColor=none;" parent="1" vertex="1">
          <mxGeometry x="57.5" y="321" width="100" height="60" as="geometry" />
        </mxCell>
        <mxCell id="u2REjSNjAs1CH6g7LEcJ-43" value="" style="edgeStyle=orthogonalEdgeStyle;rounded=1;orthogonalLoop=1;jettySize=auto;html=1;labelBackgroundColor=none;fontColor=default;curved=0;" parent="1" source="u2REjSNjAs1CH6g7LEcJ-33" target="u2REjSNjAs1CH6g7LEcJ-42" edge="1">
          <mxGeometry relative="1" as="geometry" />
        </mxCell>
        <mxCell id="u2REjSNjAs1CH6g7LEcJ-33" value="• Author name&lt;br&gt;• CLI version" style="shape=internalStorage;whiteSpace=wrap;html=1;dx=15;dy=15;rounded=1;arcSize=8;strokeWidth=2;align=center;labelBackgroundColor=none;" parent="1" vertex="1">
          <mxGeometry x="42.5" y="490" width="130" height="70" as="geometry" />
        </mxCell>
        <mxCell id="u2REjSNjAs1CH6g7LEcJ-39" value="" style="edgeStyle=orthogonalEdgeStyle;rounded=1;orthogonalLoop=1;jettySize=auto;html=1;labelBackgroundColor=none;fontColor=default;curved=0;" parent="1" source="u2REjSNjAs1CH6g7LEcJ-37" target="u2REjSNjAs1CH6g7LEcJ-18" edge="1">
          <mxGeometry relative="1" as="geometry" />
        </mxCell>
        <mxCell id="u2REjSNjAs1CH6g7LEcJ-37" value="Welcome to the FCLA CLI" style="strokeWidth=2;html=1;shape=mxgraph.flowchart.display;whiteSpace=wrap;rounded=1;labelBackgroundColor=none;" parent="1" vertex="1">
          <mxGeometry x="495" y="180" width="180" height="60" as="geometry" />
        </mxCell>
        <mxCell id="u2REjSNjAs1CH6g7LEcJ-45" value="" style="edgeStyle=orthogonalEdgeStyle;rounded=1;orthogonalLoop=1;jettySize=auto;html=1;labelBackgroundColor=none;fontColor=default;exitX=0.5;exitY=1;exitDx=0;exitDy=0;exitPerimeter=0;curved=0;entryX=0.5;entryY=0;entryDx=0;entryDy=0;entryPerimeter=0;" parent="1" source="u2REjSNjAs1CH6g7LEcJ-42" target="7kLtS60RdI804fuluWtB-31" edge="1">
          <mxGeometry relative="1" as="geometry">
            <Array as="points">
              <mxPoint x="108" y="6350" />
              <mxPoint x="585" y="6350" />
            </Array>
          </mxGeometry>
        </mxCell>
        <mxCell id="u2REjSNjAs1CH6g7LEcJ-42" value="Configuration saved!&lt;br&gt;Run the CLI again" style="strokeWidth=2;html=1;shape=mxgraph.flowchart.display;whiteSpace=wrap;rounded=1;verticalAlign=middle;labelBackgroundColor=none;" parent="1" vertex="1">
          <mxGeometry x="25" y="618" width="165" height="60" as="geometry" />
        </mxCell>
        <mxCell id="u2REjSNjAs1CH6g7LEcJ-44" value="End" style="ellipse;whiteSpace=wrap;html=1;strokeWidth=2;rounded=1;labelBackgroundColor=none;" parent="1" vertex="1">
          <mxGeometry x="545" y="6490" width="80" height="80" as="geometry" />
        </mxCell>
        <mxCell id="u2REjSNjAs1CH6g7LEcJ-58" value="" style="edgeStyle=orthogonalEdgeStyle;rounded=1;orthogonalLoop=1;jettySize=auto;html=1;exitX=0.5;exitY=1;exitDx=0;exitDy=0;labelBackgroundColor=none;fontColor=default;curved=0;" parent="1" source="u2REjSNjAs1CH6g7LEcJ-83" target="u2REjSNjAs1CH6g7LEcJ-53" edge="1">
          <mxGeometry relative="1" as="geometry">
            <mxPoint x="585" y="780" as="sourcePoint" />
          </mxGeometry>
        </mxCell>
        <mxCell id="7kLtS60RdI804fuluWtB-9" value="" style="edgeStyle=orthogonalEdgeStyle;rounded=1;orthogonalLoop=1;jettySize=auto;html=1;curved=0;" parent="1" source="u2REjSNjAs1CH6g7LEcJ-53" target="WI9gq7BXhNI-lv0J8zuG-40" edge="1">
          <mxGeometry relative="1" as="geometry" />
        </mxCell>
        <mxCell id="u2REjSNjAs1CH6g7LEcJ-53" value="Configure&lt;br&gt;scenario" style="shape=parallelogram;html=1;strokeWidth=2;perimeter=parallelogramPerimeter;whiteSpace=wrap;rounded=1;arcSize=12;size=0.23;labelBackgroundColor=none;" parent="1" vertex="1">
          <mxGeometry x="535" y="942" width="100" height="60" as="geometry" />
        </mxCell>
        <mxCell id="7kLtS60RdI804fuluWtB-27" style="edgeStyle=orthogonalEdgeStyle;rounded=1;orthogonalLoop=1;jettySize=auto;html=1;entryX=0.5;entryY=0;entryDx=0;entryDy=0;curved=0;" parent="1" source="u2REjSNjAs1CH6g7LEcJ-74" target="WI9gq7BXhNI-lv0J8zuG-10" edge="1">
          <mxGeometry relative="1" as="geometry">
            <Array as="points">
              <mxPoint x="585" y="1990" />
              <mxPoint x="376" y="1990" />
            </Array>
          </mxGeometry>
        </mxCell>
        <mxCell id="u2REjSNjAs1CH6g7LEcJ-74" value="Mission&lt;br&gt;(Zeus)" style="shape=parallelogram;html=1;strokeWidth=2;perimeter=parallelogramPerimeter;whiteSpace=wrap;rounded=1;arcSize=12;size=0.23;labelBackgroundColor=none;" parent="1" vertex="1">
          <mxGeometry x="535" y="1900" width="100" height="60" as="geometry" />
        </mxCell>
        <mxCell id="u2REjSNjAs1CH6g7LEcJ-76" value="Training&lt;br&gt;map" style="shape=parallelogram;html=1;strokeWidth=2;perimeter=parallelogramPerimeter;whiteSpace=wrap;rounded=1;arcSize=12;size=0.23;labelBackgroundColor=none;" parent="1" vertex="1">
          <mxGeometry x="744" y="1900" width="100" height="60" as="geometry" />
        </mxCell>
        <mxCell id="8wnRQOadAzvCx5RK6HXc-2" style="edgeStyle=orthogonalEdgeStyle;rounded=1;orthogonalLoop=1;jettySize=auto;html=1;entryX=0.5;entryY=0;entryDx=0;entryDy=0;exitX=0.5;exitY=1;exitDx=0;exitDy=0;curved=0;" parent="1" source="u2REjSNjAs1CH6g7LEcJ-83" target="8wnRQOadAzvCx5RK6HXc-1" edge="1">
          <mxGeometry relative="1" as="geometry">
            <Array as="points">
              <mxPoint x="585" y="869" />
              <mxPoint x="938" y="869" />
            </Array>
          </mxGeometry>
        </mxCell>
        <mxCell id="u2REjSNjAs1CH6g7LEcJ-83" value="Select an operation" style="html=1;strokeWidth=2;shape=manualInput;whiteSpace=wrap;rounded=1;size=26;arcSize=11;labelBackgroundColor=none;" parent="1" vertex="1">
          <mxGeometry x="525" y="679" width="120" height="75" as="geometry" />
        </mxCell>
        <mxCell id="u2REjSNjAs1CH6g7LEcJ-88" value="True" style="text;html=1;align=center;verticalAlign=middle;resizable=0;points=[];autosize=1;fontColor=#FFFFFF;fillColor=#333333;" parent="1" vertex="1">
          <mxGeometry x="437" y="338" width="42" height="26" as="geometry" />
        </mxCell>
        <mxCell id="u2REjSNjAs1CH6g7LEcJ-93" value="Save as JSON" style="text;html=1;align=center;verticalAlign=middle;resizable=0;points=[];autosize=1;fontColor=#FFFFFF;fillColor=#333333;" parent="1" vertex="1">
          <mxGeometry x="59" y="422" width="97" height="26" as="geometry" />
        </mxCell>
        <mxCell id="u2REjSNjAs1CH6g7LEcJ-94" value="Options" style="text;html=1;align=center;verticalAlign=middle;resizable=0;points=[];autosize=1;fontColor=#FFFFFF;fillColor=#333333;" parent="1" vertex="1">
          <mxGeometry x="555.5" y="855" width="59" height="26" as="geometry" />
        </mxCell>
        <mxCell id="u2REjSNjAs1CH6g7LEcJ-126" value="" style="edgeStyle=orthogonalEdgeStyle;rounded=1;orthogonalLoop=1;jettySize=auto;html=1;curved=0;" parent="1" source="u2REjSNjAs1CH6g7LEcJ-122" target="u2REjSNjAs1CH6g7LEcJ-124" edge="1">
          <mxGeometry relative="1" as="geometry" />
        </mxCell>
        <mxCell id="u2REjSNjAs1CH6g7LEcJ-122" value="End title" style="html=1;strokeWidth=2;shape=manualInput;whiteSpace=wrap;rounded=1;size=26;arcSize=11;" parent="1" vertex="1">
          <mxGeometry x="326" y="2189" width="100" height="60" as="geometry" />
        </mxCell>
        <mxCell id="WI9gq7BXhNI-lv0J8zuG-15" value="" style="edgeStyle=orthogonalEdgeStyle;rounded=1;orthogonalLoop=1;jettySize=auto;html=1;exitX=0.5;exitY=1;exitDx=0;exitDy=0;curved=0;" parent="1" source="u2REjSNjAs1CH6g7LEcJ-124" target="WI9gq7BXhNI-lv0J8zuG-13" edge="1">
          <mxGeometry relative="1" as="geometry">
            <Array as="points">
              <mxPoint x="376" y="2540" />
              <mxPoint x="585" y="2540" />
            </Array>
          </mxGeometry>
        </mxCell>
        <mxCell id="u2REjSNjAs1CH6g7LEcJ-124" value="End description" style="html=1;strokeWidth=2;shape=manualInput;whiteSpace=wrap;rounded=1;size=26;arcSize=11;" parent="1" vertex="1">
          <mxGeometry x="326" y="2326" width="100" height="75" as="geometry" />
        </mxCell>
        <mxCell id="7kLtS60RdI804fuluWtB-12" value="" style="edgeStyle=orthogonalEdgeStyle;rounded=1;orthogonalLoop=1;jettySize=auto;html=1;curved=0;" parent="1" source="u2REjSNjAs1CH6g7LEcJ-128" target="7kLtS60RdI804fuluWtB-6" edge="1">
          <mxGeometry relative="1" as="geometry" />
        </mxCell>
        <mxCell id="u2REjSNjAs1CH6g7LEcJ-128" value="Add animated&lt;br&gt;introduction?" style="html=1;strokeWidth=2;shape=manualInput;whiteSpace=wrap;rounded=1;size=26;arcSize=11;" parent="1" vertex="1">
          <mxGeometry x="535.5" y="1357" width="100" height="80" as="geometry" />
        </mxCell>
        <mxCell id="WI9gq7BXhNI-lv0J8zuG-3" value="" style="edgeStyle=orthogonalEdgeStyle;rounded=1;orthogonalLoop=1;jettySize=auto;html=1;curved=0;" parent="1" source="WI9gq7BXhNI-lv0J8zuG-1" target="u2REjSNjAs1CH6g7LEcJ-83" edge="1">
          <mxGeometry relative="1" as="geometry" />
        </mxCell>
        <mxCell id="WI9gq7BXhNI-lv0J8zuG-6" value="" style="edgeStyle=orthogonalEdgeStyle;rounded=1;orthogonalLoop=1;jettySize=auto;html=1;curved=0;" parent="1" source="WI9gq7BXhNI-lv0J8zuG-1" target="WI9gq7BXhNI-lv0J8zuG-5" edge="1">
          <mxGeometry relative="1" as="geometry" />
        </mxCell>
        <mxCell id="WI9gq7BXhNI-lv0J8zuG-1" value="Is valid&lt;br&gt;directory?" style="rhombus;whiteSpace=wrap;html=1;strokeWidth=2;" parent="1" vertex="1">
          <mxGeometry x="535" y="464" width="100" height="100" as="geometry" />
        </mxCell>
        <mxCell id="WI9gq7BXhNI-lv0J8zuG-9" style="edgeStyle=orthogonalEdgeStyle;rounded=1;orthogonalLoop=1;jettySize=auto;html=1;entryX=0.5;entryY=0;entryDx=0;entryDy=0;exitX=0.5;exitY=1;exitDx=0;exitDy=0;exitPerimeter=0;curved=0;entryPerimeter=0;" parent="1" source="WI9gq7BXhNI-lv0J8zuG-5" target="7kLtS60RdI804fuluWtB-31" edge="1">
          <mxGeometry relative="1" as="geometry">
            <Array as="points">
              <mxPoint x="1068" y="6350" />
              <mxPoint x="585" y="6350" />
            </Array>
          </mxGeometry>
        </mxCell>
        <mxCell id="WI9gq7BXhNI-lv0J8zuG-5" value="Invalid working&lt;br&gt;directory" style="strokeWidth=2;html=1;shape=mxgraph.flowchart.display;whiteSpace=wrap;" parent="1" vertex="1">
          <mxGeometry x="1005" y="484" width="125" height="60" as="geometry" />
        </mxCell>
        <mxCell id="u2REjSNjAs1CH6g7LEcJ-89" value="False" style="text;html=1;align=center;verticalAlign=middle;resizable=0;points=[];autosize=1;fontColor=#FFFFFF;fillColor=#333333;" parent="1" vertex="1">
          <mxGeometry x="797" y="501" width="47" height="26" as="geometry" />
        </mxCell>
        <mxCell id="WI9gq7BXhNI-lv0J8zuG-7" value="True" style="text;html=1;align=center;verticalAlign=middle;resizable=0;points=[];autosize=1;fontColor=#FFFFFF;fillColor=#333333;" parent="1" vertex="1">
          <mxGeometry x="564.5" y="609" width="42" height="26" as="geometry" />
        </mxCell>
        <mxCell id="7kLtS60RdI804fuluWtB-7" value="" style="edgeStyle=orthogonalEdgeStyle;rounded=1;orthogonalLoop=1;jettySize=auto;html=1;curved=0;" parent="1" source="WI9gq7BXhNI-lv0J8zuG-10" target="u2REjSNjAs1CH6g7LEcJ-122" edge="1">
          <mxGeometry relative="1" as="geometry" />
        </mxCell>
        <mxCell id="WI9gq7BXhNI-lv0J8zuG-10" value="Respawn delay" style="html=1;strokeWidth=2;shape=manualInput;whiteSpace=wrap;rounded=1;size=26;arcSize=11;" parent="1" vertex="1">
          <mxGeometry x="326" y="2028" width="100" height="80" as="geometry" />
        </mxCell>
        <mxCell id="7kLtS60RdI804fuluWtB-36" value="" style="edgeStyle=orthogonalEdgeStyle;rounded=1;orthogonalLoop=1;jettySize=auto;html=1;curved=0;" parent="1" source="WI9gq7BXhNI-lv0J8zuG-13" target="7kLtS60RdI804fuluWtB-35" edge="1">
          <mxGeometry relative="1" as="geometry" />
        </mxCell>
        <mxCell id="WI9gq7BXhNI-lv0J8zuG-13" value="Base configuration&lt;br&gt;ready" style="strokeWidth=2;html=1;shape=mxgraph.flowchart.display;whiteSpace=wrap;" parent="1" vertex="1">
          <mxGeometry x="510.5" y="2624" width="150" height="60" as="geometry" />
        </mxCell>
        <mxCell id="WI9gq7BXhNI-lv0J8zuG-34" style="edgeStyle=orthogonalEdgeStyle;rounded=1;orthogonalLoop=1;jettySize=auto;html=1;entryX=0.5;entryY=0;entryDx=0;entryDy=0;curved=0;" parent="1" source="7kLtS60RdI804fuluWtB-31" target="u2REjSNjAs1CH6g7LEcJ-44" edge="1">
          <mxGeometry relative="1" as="geometry" />
        </mxCell>
        <mxCell id="7kLtS60RdI804fuluWtB-46" value="" style="edgeStyle=orthogonalEdgeStyle;rounded=1;orthogonalLoop=1;jettySize=auto;html=1;curved=0;" parent="1" source="WI9gq7BXhNI-lv0J8zuG-35" target="7kLtS60RdI804fuluWtB-45" edge="1">
          <mxGeometry relative="1" as="geometry">
            <Array as="points">
              <mxPoint x="585" y="3754" />
              <mxPoint x="586" y="3754" />
            </Array>
          </mxGeometry>
        </mxCell>
        <mxCell id="WI9gq7BXhNI-lv0J8zuG-35" value="• Author name&lt;br&gt;• Creation date&lt;br&gt;• Scenario type&lt;br&gt;• Scenario name&lt;br&gt;• Scenario description&lt;br&gt;• Number of mission" style="shape=internalStorage;whiteSpace=wrap;html=1;dx=15;dy=15;rounded=1;arcSize=8;strokeWidth=2;" parent="1" vertex="1">
          <mxGeometry x="479.75" y="3977" width="210.5" height="140" as="geometry" />
        </mxCell>
        <mxCell id="7kLtS60RdI804fuluWtB-24" value="" style="edgeStyle=orthogonalEdgeStyle;rounded=1;orthogonalLoop=1;jettySize=auto;html=1;curved=0;" parent="1" source="WI9gq7BXhNI-lv0J8zuG-38" target="WI9gq7BXhNI-lv0J8zuG-10" edge="1">
          <mxGeometry relative="1" as="geometry" />
        </mxCell>
        <mxCell id="WI9gq7BXhNI-lv0J8zuG-38" value="Mission&lt;br&gt;(campaign)" style="shape=parallelogram;html=1;strokeWidth=2;perimeter=parallelogramPerimeter;whiteSpace=wrap;rounded=1;arcSize=12;size=0.23;labelBackgroundColor=none;" parent="1" vertex="1">
          <mxGeometry x="326" y="1900" width="100" height="60" as="geometry" />
        </mxCell>
        <mxCell id="7kLtS60RdI804fuluWtB-10" value="" style="edgeStyle=orthogonalEdgeStyle;rounded=1;orthogonalLoop=1;jettySize=auto;html=1;curved=0;" parent="1" source="WI9gq7BXhNI-lv0J8zuG-40" target="WI9gq7BXhNI-lv0J8zuG-42" edge="1">
          <mxGeometry relative="1" as="geometry" />
        </mxCell>
        <mxCell id="WI9gq7BXhNI-lv0J8zuG-40" value="Scenario name" style="html=1;strokeWidth=2;shape=manualInput;whiteSpace=wrap;rounded=1;size=26;arcSize=11;" parent="1" vertex="1">
          <mxGeometry x="535" y="1076" width="100" height="70" as="geometry" />
        </mxCell>
        <mxCell id="7kLtS60RdI804fuluWtB-11" value="" style="edgeStyle=orthogonalEdgeStyle;rounded=1;orthogonalLoop=1;jettySize=auto;html=1;curved=0;" parent="1" source="WI9gq7BXhNI-lv0J8zuG-42" target="u2REjSNjAs1CH6g7LEcJ-128" edge="1">
          <mxGeometry relative="1" as="geometry" />
        </mxCell>
        <mxCell id="WI9gq7BXhNI-lv0J8zuG-42" value="Scenario description" style="html=1;strokeWidth=2;shape=manualInput;whiteSpace=wrap;rounded=1;size=26;arcSize=11;" parent="1" vertex="1">
          <mxGeometry x="535" y="1204" width="100" height="85" as="geometry" />
        </mxCell>
        <mxCell id="8wnRQOadAzvCx5RK6HXc-7" value="" style="edgeStyle=orthogonalEdgeStyle;rounded=1;orthogonalLoop=1;jettySize=auto;html=1;curved=0;" parent="1" source="8wnRQOadAzvCx5RK6HXc-1" target="8wnRQOadAzvCx5RK6HXc-6" edge="1">
          <mxGeometry relative="1" as="geometry" />
        </mxCell>
        <mxCell id="8wnRQOadAzvCx5RK6HXc-1" value="Factory reset" style="shape=parallelogram;html=1;strokeWidth=2;perimeter=parallelogramPerimeter;whiteSpace=wrap;rounded=1;arcSize=12;size=0.23;labelBackgroundColor=none;" parent="1" vertex="1">
          <mxGeometry x="862.25" y="942" width="150.5" height="60" as="geometry" />
        </mxCell>
        <mxCell id="fKltwH5AKrVZ1ibLdWWh-2" value="" style="edgeStyle=orthogonalEdgeStyle;rounded=0;orthogonalLoop=1;jettySize=auto;html=1;" edge="1" parent="1" source="8wnRQOadAzvCx5RK6HXc-6" target="fKltwH5AKrVZ1ibLdWWh-1">
          <mxGeometry relative="1" as="geometry" />
        </mxCell>
        <mxCell id="8wnRQOadAzvCx5RK6HXc-6" value="• Delete save folder" style="rounded=1;whiteSpace=wrap;html=1;absoluteArcSize=1;arcSize=14;strokeWidth=2;align=center;" parent="1" vertex="1">
          <mxGeometry x="875" y="1073.5" width="125" height="75" as="geometry" />
        </mxCell>
        <mxCell id="7kLtS60RdI804fuluWtB-4" value="Restart" style="strokeWidth=2;html=1;shape=mxgraph.flowchart.start_2;whiteSpace=wrap;rounded=1;labelBackgroundColor=none;" parent="1" vertex="1">
          <mxGeometry x="900" y="1359.5" width="75" height="75" as="geometry" />
        </mxCell>
        <mxCell id="7kLtS60RdI804fuluWtB-17" value="" style="edgeStyle=orthogonalEdgeStyle;rounded=1;orthogonalLoop=1;jettySize=auto;html=1;curved=0;" parent="1" source="7kLtS60RdI804fuluWtB-6" target="7kLtS60RdI804fuluWtB-16" edge="1">
          <mxGeometry relative="1" as="geometry" />
        </mxCell>
        <mxCell id="7kLtS60RdI804fuluWtB-6" value="Allow profile&lt;br&gt;glasses?" style="html=1;strokeWidth=2;shape=manualInput;whiteSpace=wrap;rounded=1;size=26;arcSize=11;" parent="1" vertex="1">
          <mxGeometry x="535" y="1518" width="100" height="75" as="geometry" />
        </mxCell>
        <mxCell id="7kLtS60RdI804fuluWtB-25" style="edgeStyle=orthogonalEdgeStyle;rounded=1;orthogonalLoop=1;jettySize=auto;html=1;entryX=0.5;entryY=0;entryDx=0;entryDy=0;strokeColor=default;curved=0;" parent="1" source="7kLtS60RdI804fuluWtB-16" target="WI9gq7BXhNI-lv0J8zuG-38" edge="1">
          <mxGeometry relative="1" as="geometry">
            <Array as="points">
              <mxPoint x="586" y="1840" />
              <mxPoint x="376" y="1840" />
            </Array>
          </mxGeometry>
        </mxCell>
        <mxCell id="7kLtS60RdI804fuluWtB-26" style="edgeStyle=orthogonalEdgeStyle;rounded=1;orthogonalLoop=1;jettySize=auto;html=1;entryX=0.75;entryY=0;entryDx=0;entryDy=0;curved=0;" parent="1" source="7kLtS60RdI804fuluWtB-16" target="u2REjSNjAs1CH6g7LEcJ-76" edge="1">
          <mxGeometry relative="1" as="geometry">
            <Array as="points">
              <mxPoint x="586" y="1840" />
              <mxPoint x="819" y="1840" />
            </Array>
          </mxGeometry>
        </mxCell>
        <mxCell id="7kLtS60RdI804fuluWtB-16" value="Scenario type?" style="html=1;strokeWidth=2;shape=manualInput;whiteSpace=wrap;rounded=1;size=26;arcSize=11;labelBackgroundColor=none;" parent="1" vertex="1">
          <mxGeometry x="525.5" y="1720" width="120" height="75" as="geometry" />
        </mxCell>
        <mxCell id="7kLtS60RdI804fuluWtB-23" value="" style="edgeStyle=orthogonalEdgeStyle;rounded=1;orthogonalLoop=1;jettySize=auto;html=1;entryX=0.5;entryY=0;entryDx=0;entryDy=0;curved=0;" parent="1" source="7kLtS60RdI804fuluWtB-16" target="u2REjSNjAs1CH6g7LEcJ-74" edge="1">
          <mxGeometry relative="1" as="geometry">
            <mxPoint x="586" y="1795" as="sourcePoint" />
            <mxPoint x="585" y="1900" as="targetPoint" />
          </mxGeometry>
        </mxCell>
        <mxCell id="7kLtS60RdI804fuluWtB-21" value="Options" style="text;html=1;align=center;verticalAlign=middle;resizable=0;points=[];autosize=1;fontColor=#FFFFFF;fillColor=#333333;" parent="1" vertex="1">
          <mxGeometry x="556" y="1827" width="59" height="26" as="geometry" />
        </mxCell>
        <mxCell id="7kLtS60RdI804fuluWtB-28" style="edgeStyle=orthogonalEdgeStyle;rounded=1;orthogonalLoop=1;jettySize=auto;html=1;entryX=0.5;entryY=0;entryDx=0;entryDy=0;entryPerimeter=0;curved=0;" parent="1" source="u2REjSNjAs1CH6g7LEcJ-76" target="WI9gq7BXhNI-lv0J8zuG-13" edge="1">
          <mxGeometry relative="1" as="geometry">
            <Array as="points">
              <mxPoint x="794" y="2540" />
              <mxPoint x="586" y="2540" />
            </Array>
          </mxGeometry>
        </mxCell>
        <mxCell id="7kLtS60RdI804fuluWtB-31" value="CLI finished" style="strokeWidth=2;html=1;shape=mxgraph.flowchart.display;whiteSpace=wrap;rounded=1;labelBackgroundColor=none;" parent="1" vertex="1">
          <mxGeometry x="495" y="6390" width="180" height="60" as="geometry" />
        </mxCell>
        <mxCell id="7kLtS60RdI804fuluWtB-44" value="" style="edgeStyle=orthogonalEdgeStyle;rounded=1;orthogonalLoop=1;jettySize=auto;html=1;curved=0;" parent="1" source="7kLtS60RdI804fuluWtB-34" target="7kLtS60RdI804fuluWtB-42" edge="1">
          <mxGeometry relative="1" as="geometry" />
        </mxCell>
        <mxCell id="7kLtS60RdI804fuluWtB-34" value="• Add&amp;nbsp;&lt;i style=&quot;border-color: var(--border-color);&quot;&gt;.vscode&lt;/i&gt;&amp;nbsp;folder with pre-defined&lt;br style=&quot;border-color: var(--border-color);&quot;&gt;settings and recommended extensions&lt;br&gt;&lt;br&gt;• Add&amp;nbsp;&lt;i style=&quot;border-color: var(--border-color);&quot;&gt;cba_settings.sqf&amp;nbsp;&lt;/i&gt;file with addon&lt;br style=&quot;border-color: var(--border-color);&quot;&gt;options&lt;br&gt;&lt;br&gt;• Add&amp;nbsp;&lt;i style=&quot;border-color: var(--border-color);&quot;&gt;initPlayerLocal.sqf&amp;nbsp;&lt;/i&gt;file&amp;nbsp;with the script&lt;br style=&quot;border-color: var(--border-color);&quot;&gt;to show a donations message&lt;br&gt;&lt;br&gt;• Add&amp;nbsp;&lt;i style=&quot;border-color: var(--border-color);&quot;&gt;todos.md&amp;nbsp;&lt;/i&gt;file for developer todos&lt;br&gt;&lt;br&gt;• Add&amp;nbsp;&lt;i style=&quot;border-color: var(--border-color);&quot;&gt;tools.md&amp;nbsp;&lt;/i&gt;file which have utility tools&lt;br style=&quot;border-color: var(--border-color);&quot;&gt;for the developer&lt;br&gt;&lt;br&gt;• Create a&amp;nbsp;&lt;i style=&quot;border-color: var(--border-color);&quot;&gt;src&amp;nbsp;&lt;/i&gt;folder with the source code&lt;br style=&quot;border-color: var(--border-color);&quot;&gt;of scripts, static assets, and sounds given&lt;br style=&quot;border-color: var(--border-color);&quot;&gt;the scenario type and user inputs.&lt;br&gt;&lt;br&gt;• Create &lt;i&gt;description.ext&lt;/i&gt;&amp;nbsp;file with given user&lt;br&gt;inputs and scenario type&lt;br&gt;&lt;br&gt;• Create&amp;nbsp;&lt;i style=&quot;border-color: var(--border-color);&quot;&gt;init.sqf&amp;nbsp;&lt;/i&gt;file with animated intro&lt;br style=&quot;border-color: var(--border-color);&quot;&gt;and scripts based on user inputs" style="rounded=1;whiteSpace=wrap;html=1;absoluteArcSize=1;arcSize=14;strokeWidth=2;align=center;" parent="1" vertex="1">
          <mxGeometry x="463" y="3328" width="245" height="375" as="geometry" />
        </mxCell>
        <mxCell id="d2PY4S5o6BHK0BxMwNVY-3" value="" style="edgeStyle=orthogonalEdgeStyle;rounded=1;orthogonalLoop=1;jettySize=auto;html=1;curved=0;" parent="1" source="7kLtS60RdI804fuluWtB-35" target="d2PY4S5o6BHK0BxMwNVY-1" edge="1">
          <mxGeometry relative="1" as="geometry" />
        </mxCell>
        <mxCell id="7kLtS60RdI804fuluWtB-35" value="Loadouts" style="html=1;strokeWidth=2;shape=manualInput;whiteSpace=wrap;rounded=1;size=26;arcSize=11;" parent="1" vertex="1">
          <mxGeometry x="535.5" y="2750" width="100" height="60" as="geometry" />
        </mxCell>
        <mxCell id="7kLtS60RdI804fuluWtB-41" value="" style="edgeStyle=orthogonalEdgeStyle;rounded=1;orthogonalLoop=1;jettySize=auto;html=1;curved=0;" parent="1" source="7kLtS60RdI804fuluWtB-39" target="7kLtS60RdI804fuluWtB-34" edge="1">
          <mxGeometry relative="1" as="geometry" />
        </mxCell>
        <mxCell id="7kLtS60RdI804fuluWtB-39" value="Create documents" style="strokeWidth=2;html=1;shape=mxgraph.flowchart.multi-document;whiteSpace=wrap;" parent="1" vertex="1">
          <mxGeometry x="505.5" y="3087" width="160" height="85" as="geometry" />
        </mxCell>
        <mxCell id="7kLtS60RdI804fuluWtB-43" style="edgeStyle=orthogonalEdgeStyle;rounded=1;orthogonalLoop=1;jettySize=auto;html=1;entryX=0.5;entryY=0;entryDx=0;entryDy=0;curved=0;" parent="1" source="7kLtS60RdI804fuluWtB-42" target="WI9gq7BXhNI-lv0J8zuG-35" edge="1">
          <mxGeometry relative="1" as="geometry" />
        </mxCell>
        <mxCell id="7kLtS60RdI804fuluWtB-42" value="Create CLI log" style="strokeWidth=2;html=1;shape=mxgraph.flowchart.document2;whiteSpace=wrap;size=0.25;" parent="1" vertex="1">
          <mxGeometry x="535.5" y="3768" width="100" height="60" as="geometry" />
        </mxCell>
        <mxCell id="WI9gq7BXhNI-lv0J8zuG-36" value="Save as Markdown" style="text;html=1;align=center;verticalAlign=middle;resizable=0;points=[];autosize=1;fontColor=#FFFFFF;fillColor=#333333;" parent="1" vertex="1">
          <mxGeometry x="525" y="3890" width="120" height="26" as="geometry" />
        </mxCell>
        <mxCell id="7kLtS60RdI804fuluWtB-62" value="" style="edgeStyle=orthogonalEdgeStyle;rounded=1;orthogonalLoop=1;jettySize=auto;html=1;curved=0;" parent="1" source="7kLtS60RdI804fuluWtB-45" target="7kLtS60RdI804fuluWtB-52" edge="1">
          <mxGeometry relative="1" as="geometry" />
        </mxCell>
        <mxCell id="7kLtS60RdI804fuluWtB-45" value="• Rename scenario folder given&lt;br&gt;user inputs and scenario type." style="rounded=1;whiteSpace=wrap;html=1;absoluteArcSize=1;arcSize=14;strokeWidth=2;" parent="1" vertex="1">
          <mxGeometry x="490.25" y="4191" width="190.5" height="75" as="geometry" />
        </mxCell>
        <mxCell id="0bhFbeApOQJovt4dPdJH-2" value="" style="edgeStyle=orthogonalEdgeStyle;rounded=1;orthogonalLoop=1;jettySize=auto;html=1;curved=0;" parent="1" source="7kLtS60RdI804fuluWtB-52" target="0bhFbeApOQJovt4dPdJH-1" edge="1">
          <mxGeometry relative="1" as="geometry" />
        </mxCell>
        <mxCell id="7kLtS60RdI804fuluWtB-52" value="• Open scenario folder&lt;br&gt;in VSCODE." style="rounded=1;whiteSpace=wrap;html=1;absoluteArcSize=1;arcSize=14;strokeWidth=2;" parent="1" vertex="1">
          <mxGeometry x="510.5" y="4318" width="150" height="75" as="geometry" />
        </mxCell>
        <mxCell id="0bhFbeApOQJovt4dPdJH-12" value="" style="edgeStyle=orthogonalEdgeStyle;rounded=1;orthogonalLoop=1;jettySize=auto;html=1;curved=0;" parent="1" source="0bhFbeApOQJovt4dPdJH-1" target="0bhFbeApOQJovt4dPdJH-11" edge="1">
          <mxGeometry relative="1" as="geometry" />
        </mxCell>
        <mxCell id="0bhFbeApOQJovt4dPdJH-1" value="To make a complete scenario&lt;br&gt;configuration you have to follow&lt;br&gt;the following steps..." style="strokeWidth=2;html=1;shape=mxgraph.flowchart.display;whiteSpace=wrap;rounded=1;labelBackgroundColor=none;" parent="1" vertex="1">
          <mxGeometry x="472.75" y="4451" width="225.5" height="80" as="geometry" />
        </mxCell>
        <mxCell id="0bhFbeApOQJovt4dPdJH-6" value="" style="edgeStyle=orthogonalEdgeStyle;rounded=1;orthogonalLoop=1;jettySize=auto;html=1;curved=0;" parent="1" source="0bhFbeApOQJovt4dPdJH-3" target="0bhFbeApOQJovt4dPdJH-5" edge="1">
          <mxGeometry relative="1" as="geometry" />
        </mxCell>
        <mxCell id="0bhFbeApOQJovt4dPdJH-3" value="Load scenario template given&lt;br&gt;the scenario type..." style="strokeWidth=2;html=1;shape=mxgraph.flowchart.display;whiteSpace=wrap;rounded=1;labelBackgroundColor=none;" parent="1" vertex="1">
          <mxGeometry x="485" y="5020" width="200" height="75" as="geometry" />
        </mxCell>
        <mxCell id="0bhFbeApOQJovt4dPdJH-34" style="edgeStyle=orthogonalEdgeStyle;rounded=1;orthogonalLoop=1;jettySize=auto;html=1;entryX=0.5;entryY=0;entryDx=0;entryDy=0;exitX=0.5;exitY=1;exitDx=0;exitDy=0;curved=0;" parent="1" source="0bhFbeApOQJovt4dPdJH-5" target="0bhFbeApOQJovt4dPdJH-32" edge="1">
          <mxGeometry relative="1" as="geometry">
            <Array as="points">
              <mxPoint x="585" y="5301" />
              <mxPoint x="841" y="5301" />
            </Array>
          </mxGeometry>
        </mxCell>
        <mxCell id="0bhFbeApOQJovt4dPdJH-5" value="Did you load&lt;br&gt;the template?" style="html=1;strokeWidth=2;shape=manualInput;whiteSpace=wrap;rounded=1;size=26;arcSize=11;" parent="1" vertex="1">
          <mxGeometry x="520.5" y="5162" width="130" height="75" as="geometry" />
        </mxCell>
        <mxCell id="0bhFbeApOQJovt4dPdJH-27" value="" style="edgeStyle=orthogonalEdgeStyle;rounded=1;orthogonalLoop=1;jettySize=auto;html=1;curved=0;" parent="1" source="0bhFbeApOQJovt4dPdJH-9" target="0bhFbeApOQJovt4dPdJH-22" edge="1">
          <mxGeometry relative="1" as="geometry" />
        </mxCell>
        <mxCell id="0bhFbeApOQJovt4dPdJH-9" value="Now copy the content&lt;br&gt;inside&amp;nbsp;&lt;i style=&quot;border-color: var(--border-color);&quot;&gt;cba_settings.sqf &lt;/i&gt;&lt;span style=&quot;border-color: var(--border-color);&quot;&gt;file, and&lt;br&gt;import it to addons&lt;br&gt;options (server side) of&lt;br&gt;the scenario...&lt;/span&gt;" style="strokeWidth=2;html=1;shape=mxgraph.flowchart.display;whiteSpace=wrap;rounded=1;labelBackgroundColor=none;" parent="1" vertex="1">
          <mxGeometry x="472.25" y="5397" width="225.5" height="95" as="geometry" />
        </mxCell>
        <mxCell id="0bhFbeApOQJovt4dPdJH-16" value="" style="edgeStyle=orthogonalEdgeStyle;rounded=1;orthogonalLoop=1;jettySize=auto;html=1;curved=0;" parent="1" source="0bhFbeApOQJovt4dPdJH-11" target="0bhFbeApOQJovt4dPdJH-14" edge="1">
          <mxGeometry relative="1" as="geometry" />
        </mxCell>
        <mxCell id="0bhFbeApOQJovt4dPdJH-11" value="&lt;div&gt;Open the&lt;/div&gt;&lt;div&gt;scenario in 3DEN&lt;/div&gt;" style="strokeWidth=2;html=1;shape=mxgraph.flowchart.display;whiteSpace=wrap;rounded=1;labelBackgroundColor=none;" parent="1" vertex="1">
          <mxGeometry x="485.5" y="4613" width="200" height="75" as="geometry" />
        </mxCell>
        <mxCell id="0bhFbeApOQJovt4dPdJH-17" value="" style="edgeStyle=orthogonalEdgeStyle;rounded=1;orthogonalLoop=1;jettySize=auto;html=1;curved=0;" parent="1" source="0bhFbeApOQJovt4dPdJH-14" target="0bhFbeApOQJovt4dPdJH-3" edge="1">
          <mxGeometry relative="1" as="geometry" />
        </mxCell>
        <mxCell id="0bhFbeApOQJovt4dPdJH-35" style="edgeStyle=orthogonalEdgeStyle;rounded=1;orthogonalLoop=1;jettySize=auto;html=1;entryX=0.5;entryY=0;entryDx=0;entryDy=0;exitX=0.5;exitY=1;exitDx=0;exitDy=0;curved=0;" parent="1" source="0bhFbeApOQJovt4dPdJH-14" target="0bhFbeApOQJovt4dPdJH-32" edge="1">
          <mxGeometry relative="1" as="geometry">
            <Array as="points">
              <mxPoint x="585" y="4863" />
              <mxPoint x="842" y="4863" />
            </Array>
          </mxGeometry>
        </mxCell>
        <mxCell id="0bhFbeApOQJovt4dPdJH-14" value="Did you open it?" style="html=1;strokeWidth=2;shape=manualInput;whiteSpace=wrap;rounded=1;size=26;arcSize=11;" parent="1" vertex="1">
          <mxGeometry x="520" y="4750" width="130" height="75" as="geometry" />
        </mxCell>
        <mxCell id="0bhFbeApOQJovt4dPdJH-19" value="False" style="text;html=1;align=center;verticalAlign=middle;resizable=0;points=[];autosize=1;fontColor=#FFFFFF;fillColor=#333333;" parent="1" vertex="1">
          <mxGeometry x="715" y="4850" width="47" height="26" as="geometry" />
        </mxCell>
        <mxCell id="0bhFbeApOQJovt4dPdJH-20" value="True" style="text;html=1;align=center;verticalAlign=middle;resizable=0;points=[];autosize=1;fontColor=#FFFFFF;fillColor=#333333;" parent="1" vertex="1">
          <mxGeometry x="564.5" y="4897" width="42" height="26" as="geometry" />
        </mxCell>
        <mxCell id="0bhFbeApOQJovt4dPdJH-22" value="Did you import it?" style="html=1;strokeWidth=2;shape=manualInput;whiteSpace=wrap;rounded=1;size=26;arcSize=11;" parent="1" vertex="1">
          <mxGeometry x="520.5" y="5547" width="130" height="70" as="geometry" />
        </mxCell>
        <mxCell id="0bhFbeApOQJovt4dPdJH-24" value="True" style="text;html=1;align=center;verticalAlign=middle;resizable=0;points=[];autosize=1;fontColor=#FFFFFF;fillColor=#333333;" parent="1" vertex="1">
          <mxGeometry x="564" y="5340" width="42" height="26" as="geometry" />
        </mxCell>
        <mxCell id="0bhFbeApOQJovt4dPdJH-26" value="False" style="text;html=1;align=center;verticalAlign=middle;resizable=0;points=[];autosize=1;fontColor=#FFFFFF;fillColor=#333333;" parent="1" vertex="1">
          <mxGeometry x="715" y="5287" width="47" height="26" as="geometry" />
        </mxCell>
        <mxCell id="0bhFbeApOQJovt4dPdJH-32" value="• Remaining steps" style="shape=internalStorage;whiteSpace=wrap;html=1;dx=15;dy=15;rounded=1;arcSize=8;strokeWidth=2;" parent="1" vertex="1">
          <mxGeometry x="762" y="5895" width="159" height="75" as="geometry" />
        </mxCell>
        <mxCell id="0bhFbeApOQJovt4dPdJH-39" value="Scenario configured successfully.&lt;br&gt;Remember to use module compositions&lt;br&gt;to improve your productivity, and check&lt;br&gt;out remaining tasks inside &lt;i&gt;todos.md&lt;/i&gt; file&amp;nbsp;" style="strokeWidth=2;html=1;shape=mxgraph.flowchart.display;whiteSpace=wrap;rounded=1;labelBackgroundColor=none;" parent="1" vertex="1">
          <mxGeometry x="434.75" y="6025" width="300.5" height="100" as="geometry" />
        </mxCell>
        <mxCell id="0bhFbeApOQJovt4dPdJH-40" style="edgeStyle=orthogonalEdgeStyle;rounded=1;orthogonalLoop=1;jettySize=auto;html=1;entryX=0.5;entryY=0;entryDx=0;entryDy=0;entryPerimeter=0;curved=0;" parent="1" source="0bhFbeApOQJovt4dPdJH-22" target="0bhFbeApOQJovt4dPdJH-39" edge="1">
          <mxGeometry relative="1" as="geometry" />
        </mxCell>
        <mxCell id="0bhFbeApOQJovt4dPdJH-41" value="True" style="text;html=1;align=center;verticalAlign=middle;resizable=0;points=[];autosize=1;fontColor=#FFFFFF;fillColor=#333333;" parent="1" vertex="1">
          <mxGeometry x="564.5" y="5818" width="42" height="26" as="geometry" />
        </mxCell>
        <mxCell id="0bhFbeApOQJovt4dPdJH-42" style="edgeStyle=orthogonalEdgeStyle;rounded=1;orthogonalLoop=1;jettySize=auto;html=1;entryX=0.5;entryY=0;entryDx=0;entryDy=0;exitX=0.5;exitY=1;exitDx=0;exitDy=0;curved=0;" parent="1" source="0bhFbeApOQJovt4dPdJH-22" target="0bhFbeApOQJovt4dPdJH-32" edge="1">
          <mxGeometry relative="1" as="geometry">
            <mxPoint x="586" y="6025" as="sourcePoint" />
            <mxPoint x="842" y="6197" as="targetPoint" />
            <Array as="points">
              <mxPoint x="586" y="5666" />
              <mxPoint x="842" y="5666" />
            </Array>
          </mxGeometry>
        </mxCell>
        <mxCell id="0bhFbeApOQJovt4dPdJH-37" value="False" style="text;html=1;align=center;verticalAlign=middle;resizable=0;points=[];autosize=1;fontColor=#FFFFFF;fillColor=#333333;" parent="1" vertex="1">
          <mxGeometry x="685" y="5653" width="47" height="26" as="geometry" />
        </mxCell>
        <mxCell id="0bhFbeApOQJovt4dPdJH-38" value="Append to&amp;nbsp;&lt;i&gt;todos.md&lt;/i&gt;" style="text;html=1;align=center;verticalAlign=middle;resizable=0;points=[];autosize=1;fontColor=#FFFFFF;fillColor=#333333;" parent="1" vertex="1">
          <mxGeometry x="779" y="5818" width="125" height="26" as="geometry" />
        </mxCell>
        <mxCell id="0bhFbeApOQJovt4dPdJH-45" style="edgeStyle=orthogonalEdgeStyle;rounded=1;orthogonalLoop=1;jettySize=auto;html=1;entryX=0.5;entryY=0;entryDx=0;entryDy=0;entryPerimeter=0;curved=0;" parent="1" source="0bhFbeApOQJovt4dPdJH-39" target="7kLtS60RdI804fuluWtB-31" edge="1">
          <mxGeometry relative="1" as="geometry" />
        </mxCell>
        <mxCell id="d2PY4S5o6BHK0BxMwNVY-4" value="" style="edgeStyle=orthogonalEdgeStyle;rounded=0;orthogonalLoop=1;jettySize=auto;html=1;" parent="1" source="d2PY4S5o6BHK0BxMwNVY-1" target="7kLtS60RdI804fuluWtB-39" edge="1">
          <mxGeometry relative="1" as="geometry" />
        </mxCell>
        <mxCell id="d2PY4S5o6BHK0BxMwNVY-1" value="If the scenario is open in&lt;br&gt;3DEN or if scenario folder is&lt;br&gt;open in Visual Studio Code,&lt;br&gt;closed them." style="strokeWidth=2;html=1;shape=mxgraph.flowchart.display;whiteSpace=wrap;" parent="1" vertex="1">
          <mxGeometry x="473" y="2897" width="225" height="75" as="geometry" />
        </mxCell>
        <mxCell id="d2PY4S5o6BHK0BxMwNVY-6" style="edgeStyle=orthogonalEdgeStyle;rounded=1;orthogonalLoop=1;jettySize=auto;html=1;entryX=1;entryY=0.5;entryDx=0;entryDy=0;entryPerimeter=0;exitX=0.5;exitY=1;exitDx=0;exitDy=0;curved=0;" parent="1" source="0bhFbeApOQJovt4dPdJH-32" target="0bhFbeApOQJovt4dPdJH-39" edge="1">
          <mxGeometry relative="1" as="geometry" />
        </mxCell>
        <mxCell id="fKltwH5AKrVZ1ibLdWWh-3" value="" style="edgeStyle=orthogonalEdgeStyle;rounded=0;orthogonalLoop=1;jettySize=auto;html=1;" edge="1" parent="1" source="fKltwH5AKrVZ1ibLdWWh-1" target="7kLtS60RdI804fuluWtB-4">
          <mxGeometry relative="1" as="geometry" />
        </mxCell>
        <mxCell id="fKltwH5AKrVZ1ibLdWWh-1" value="Factory settings restored!&lt;br&gt;CLI restarted" style="strokeWidth=2;html=1;shape=mxgraph.flowchart.display;whiteSpace=wrap;" vertex="1" parent="1">
          <mxGeometry x="850" y="1216.5" width="175" height="60" as="geometry" />
        </mxCell>
      </root>
    </mxGraphModel>
  </diagram>
</mxfile>
